<svg width="402" height="691" viewBox="0 0 402 691" fill="none" xmlns="http://www.w3.org/2000/svg">
<path d="M10.2327 168.614C-2.95818 137.799 -3.39604 106.986 8.91912 76.1752C21.2343 45.3645 42.7879 23.3774 73.58 10.214C104.372 -2.94948 135.211 -3.38945 166.095 8.89405C196.933 21.2325 218.948 42.8093 232.139 73.6247C241.372 95.194 243.936 118.051 239.83 142.197C235.719 166.328 225.479 186.877 209.11 203.843L401.116 652.389L312.353 690.385L293.355 646.003L226.783 674.5L188.788 585.738L255.359 557.241L120.357 241.861C96.7761 241.978 74.8334 235.188 54.5291 221.491C34.2249 207.794 19.4594 190.169 10.2327 168.614ZM32.4233 159.115C42.8722 183.525 58.7486 199.922 80.0525 208.308C101.356 216.693 119.861 219.274 135.566 216.052L287.049 569.933L220.477 598.43L239.475 642.811L306.047 614.314L325.045 658.695L369.426 639.697L179.947 197.054C193.105 187.921 204.003 172.754 212.641 151.551C221.28 130.349 220.382 107.54 209.948 83.1237C199.514 58.7077 181.878 41.5319 157.04 31.5965C132.201 21.661 107.585 21.9145 83.1899 32.3571C58.7951 42.7996 41.6193 60.4358 31.6627 85.2656C21.7061 110.095 21.9597 134.712 32.4233 159.115ZM93.8913 132.803C97.1083 140.318 102.526 145.614 110.144 148.689C117.762 151.765 125.337 151.673 132.87 148.414C140.402 145.155 145.697 139.737 148.756 132.161C151.814 124.585 151.723 117.01 148.48 109.436C145.238 101.861 139.82 96.566 132.228 93.5496C124.635 90.5332 117.06 90.625 109.502 93.8251C101.945 97.0251 96.6492 102.443 93.6159 110.078C90.5825 117.713 90.6744 125.288 93.8913 132.803Z" fill="#3B93FF"/>
</svg>
